# xmcd
#
# Track frame offsets: 
#        150
#        10394
#        25858
#        39929
#        53606
#        66553
#        81410
#        94864
#        110349
#        124591
#        139293
#        152694
#        167107
#        180707
#        198452
#        212727
#
# Disc length: 3004 seconds
#
# Revision: 0
# Processed by: cddbd v1.5.2PL0 Copyright (c) Steve Scherf et al.
# Submitted via: ExactAudioCopyFreeDBPlugin 1.0
#
DISCID=dd0bba10
DTITLE=Bass Sultan Hengzt - Musik wegen Weibaz
DYEAR=2015
DGENRE=Hip-Hop
TTITLE0=Intro
TTITLE1=Bisschen Mehr
TTITLE2=I love Haters
TTITLE3=Hände Hoch
TTITLE4=Flasche mit Licht (Ich feier mich)
TTITLE5=Farben
TTITLE6=Prototyp Frauenschwarm feat. Serk
TTITLE7=Herz feat. Serk
TTITLE8=Bombe Platziert feat. Serk
TTITLE9=Kein Zurück Mehr feat. Poprockz
TTITLE10=Der Partymaker
TTITLE11=Bad Girlz feat. Harris
TTITLE12=Ride On feat. Kaiserbase
TTITLE13=Keine ist wie Du feat. Poprockz (Bonus Track)
TTITLE14=100% Ich feat. Serk (Bonus Track)
TTITLE15=Maschine (Bonus Track)
EXTD=
EXTT0=
EXTT1=
EXTT2=
EXTT3=
EXTT4=
EXTT5=
EXTT6=
EXTT7=
EXTT8=
EXTT9=
EXTT10=
EXTT11=
EXTT12=
EXTT13=
EXTT14=
EXTT15=
PLAYORDER=
